<svg width="32" height="32" viewBox="0 0 32 32" fill="none" xmlns="http://www.w3.org/2000/svg">
<path d="M25.3333 14.6676H6.66667C5.19391 14.6676 4 15.8616 4 17.3343V26.6676C4 28.1404 5.19391 29.3343 6.66667 29.3343H25.3333C26.8061 29.3343 28 28.1404 28 26.6676V17.3343C28 15.8616 26.8061 14.6676 25.3333 14.6676Z" stroke="#5A6886" stroke-width="2.66602" stroke-linecap="round" stroke-linejoin="round"/>
<path d="M9.33333 14.6667V9.33334C9.33333 7.56523 10.0357 5.86953 11.286 4.61929C12.5362 3.36905 14.2319 2.66667 16 2.66667C17.7681 2.66667 19.4638 3.36905 20.714 4.61929C21.9643 5.86953 22.6667 7.56523 22.6667 9.33334V14.6667" stroke="#5A6886" stroke-width="2.66667" stroke-linecap="round" stroke-linejoin="round"/>
</svg>
